<?xml version="1.0" encoding="utf-8"?>
<!-- Generator: Adobe Illustrator 19.2.1, SVG Export Plug-In . SVG Version: 6.00 Build 0)  -->
<svg version="1.1" id="layer" xmlns="http://www.w3.org/2000/svg" xmlns:xlink="http://www.w3.org/1999/xlink" x="0px" y="0px"
	 viewBox="0 0 652 652" style="enable-background:new 0 0 652 652;" xml:space="preserve">
<style type="text/css">
	.st0{fill:url(#SVGID_1_);}
</style>
 <defs>
<linearGradient id="SVGID_1_" gradientUnits="userSpaceOnUse" x1="6.1839" y1="558.0089" x2="8.9734" y2="558.0089" gradientTransform="matrix(107.5449 0 0 -30.0356 -639.2706 17086.1641)">
	<stop  offset="0" style="stop-color:#303BAF"/>
	<stop  offset="1" style="stop-color:#009FE9"/>
</linearGradient>
 </defs>

<path class="st0" d="M495.9,256.2L351.7,371.7l-0.1,0.1c-25.3,15.7-58.6,7.9-74.3-17.5c-15.7-25.3-7.9-58.6,17.5-74.3
	c25.3-15.7,58.6-7.9,74.3,17.5c0.2,0.3,0.3,0.5,0.5,0.8l-38.2,30.6c-6.5,5-7.7,14.3-2.8,20.8c5,6.5,14.3,7.7,20.8,2.8
	c0.2-0.1,0.3-0.3,0.5-0.4l46.6-37.3c1.1-0.7,2-1.6,2.8-2.6c0,0,0.1-0.1,0.1-0.1c0.2-0.3,0.4-0.6,0.6-0.9c0.1-0.2,0.3-0.4,0.4-0.6
	c0.1-0.2,0.2-0.3,0.3-0.5c0.2-0.3,0.4-0.6,0.5-1c0,0,0-0.1,0.1-0.1c0,0,0-0.1,0-0.1c2-4.1,1.9-8.9-0.2-13
	c-16.6-43.1-64.9-64.6-108-48s-64.6,64.9-48,108c16.6,43.1,64.9,64.6,108,48c5.4-2.1,10.5-4.7,15.3-7.8L513.5,280l0.2-0.1
	c25.4-15.6,58.6-7.7,74.2,17.7c15.6,25.4,7.7,58.6-17.7,74.2c-25.4,15.6-58.6,7.7-74.2-17.7c-2-3.2-3.6-6.5-4.8-10.1
	c-3-7.6-11.6-11.4-19.2-8.4c-7.3,2.9-11.2,11-8.7,18.5c15.5,43.6,63.4,66.3,107,50.7c43.6-15.5,66.3-63.4,50.7-107
	c-15.5-43.6-63.4-66.3-107-50.7C507.6,249.5,501.6,252.5,495.9,256.2z M214.9,371.6c0,21-17,38-38,38c-10.4,0-20.3-4.2-27.5-11.7
	l-1-1L69,273.7l-0.4-0.3c-1.3-1-2.9-1.5-4.6-1.5c-1.1,0-2.3,0.2-3.3,0.7c-3.2,1.2-5.4,4.3-5.2,7.8v114.4c0,8.2-6.6,14.8-14.8,14.8
	s-14.8-6.6-14.8-14.8V280.3c0-21,17.1-38,38.1-38c10.4,0,20.3,4.2,27.4,11.7l1,1l79.5,123.1l0.4,0.3c1.3,1,2.9,1.5,4.6,1.5
	c1.1,0,2.3-0.2,3.3-0.7c3.3-1.2,5.4-4.3,5.3-7.8V257.2c0-8.2,6.6-14.8,14.8-14.8c8.2,0,14.8,6.6,14.8,14.8L214.9,371.6z"/>
</svg>
